<svg xmlns="http://www.w3.org/2000/svg" xmlns:xlink="http://www.w3.org/1999/xlink" width="1080" zoomAndPan="magnify" viewBox="0 0 810 809.999993" height="1080" preserveAspectRatio="xMidYMid meet" version="1.0"><defs><clipPath id="fbfed5a60c"><path d="M 363.488281 243 L 446.738281 243 L 446.738281 567 L 363.488281 567 Z M 363.488281 243 " clip-rule="nonzero"/></clipPath></defs><g clip-path="url(#fbfed5a60c)"><path fill="#c2a568" d="M 402.277344 246.03125 C 402.902344 246.03125 403.558594 246.054688 404.242188 246.101562 L 404.238281 246.101562 L 407.242188 564.046875 L 407.238281 564.046875 C 406.753906 564.085938 406.277344 564.121094 405.808594 564.148438 C 405.339844 564.128906 404.863281 564.105469 404.378906 564.078125 L 404.375 564.078125 L 400.3125 246.144531 L 400.308594 246.144531 C 400.992188 246.082031 401.648438 246.042969 402.273438 246.03125 Z M 402.914062 243.277344 C 402.691406 243.277344 402.472656 243.28125 402.246094 243.285156 C 402.226562 243.285156 402.207031 243.285156 402.203125 243.285156 C 388.167969 243.285156 385.335938 253.285156 383.617188 267.234375 C 378.992188 304.828125 363.546875 495.507812 363.675781 502.785156 C 364.109375 527.328125 366.953125 543.675781 372.925781 550.59375 C 383.050781 562.320312 390.640625 566.992188 402.71875 566.992188 C 403.726562 566.992188 404.765625 566.957031 405.835938 566.894531 L 405.839844 566.894531 C 406.53125 566.921875 407.210938 566.933594 407.875 566.933594 C 420.578125 566.933594 428.210938 562.191406 438.378906 549.871094 C 444.199219 542.824219 446.679688 526.417969 446.566406 501.867188 C 446.535156 494.589844 426.859375 304.300781 421.398438 266.816406 C 419.40625 253.148438 416.425781 243.277344 402.914062 243.277344 Z M 402.914062 243.277344 " fill-opacity="1" fill-rule="nonzero"/></g><path fill="#e2ca99" d="M 398.921875 244.914062 C 414.585938 242.972656 417.828125 251.847656 420.035156 267.015625 C 425.496094 304.5 445.160156 494.703125 445.191406 501.875 C 445.304688 526.535156 442.769531 542.398438 437.320312 549 C 426.03125 562.671875 418.222656 566.558594 403.015625 565.355469 Z M 398.921875 244.914062 " fill-opacity="1" fill-rule="nonzero"/><path fill="#e2ca99" d="M 405.601562 244.839844 C 389.898438 243.246094 386.855469 252.1875 384.984375 267.402344 C 380.355469 305 364.925781 495.589844 365.050781 502.757812 C 365.484375 527.417969 368.375 543.21875 373.96875 549.699219 C 385.558594 563.121094 393.453125 566.832031 408.628906 565.292969 Z M 405.601562 244.839844 " fill-opacity="1" fill-rule="nonzero"/><path fill="#c2a568" d="M 406.105469 318.039062 L 406.078125 318.136719 C 405.574219 320.027344 405.316406 323.152344 405.300781 327.515625 C 405.394531 340.917969 405.628906 356.5625 406.007812 374.457031 C 406.046875 376.671875 406.003906 378.886719 405.886719 381.105469 C 405.695312 383.589844 405.355469 385.878906 404.867188 387.96875 L 401.402344 399.953125 C 401.125 400.925781 400.855469 402.035156 400.582031 403.28125 C 400.199219 404.988281 400.039062 407.199219 400.105469 409.914062 C 400.167969 411.609375 400.410156 413.425781 400.839844 415.367188 C 404.589844 428.261719 406.5625 435.839844 406.757812 438.09375 C 407.03125 440.148438 407.371094 443.410156 407.78125 447.875 C 410.042969 473.996094 411.167969 486.691406 411.160156 485.964844 C 411.425781 488.839844 412.015625 493.335938 412.925781 499.449219 C 412.953125 500.324219 412.574219 495.949219 411.785156 486.328125 C 410.84375 471.179688 410.117188 459.875 409.597656 452.414062 C 409.085938 445.125 408.683594 440.269531 408.398438 437.84375 C 408.441406 436.21875 406.515625 428.625 402.617188 415.0625 C 402.203125 413.238281 401.957031 411.152344 401.882812 408.808594 C 401.816406 406.140625 401.960938 404.007812 402.308594 402.410156 C 402.769531 399.621094 403.980469 394.621094 405.949219 387.40625 C 406.386719 385.324219 406.667969 383.125 406.789062 380.804688 C 406.828125 379.886719 406.84375 379.046875 406.835938 378.292969 C 406.648438 376.722656 406.363281 369.382812 405.976562 356.28125 C 405.652344 343.816406 405.457031 334.746094 405.390625 329.066406 C 405.316406 324.054688 405.554688 320.378906 406.105469 318.039062 " fill-opacity="1" fill-rule="nonzero"/><path fill="#c2a568" d="M 410.761719 320.792969 L 410.761719 320.929688 C 410.777344 323.589844 410.925781 326.390625 411.210938 329.324219 C 411.265625 329.847656 411.332031 330.402344 411.40625 330.988281 C 411.640625 332.523438 412.09375 335.925781 412.761719 341.1875 C 412.929688 342.492188 413.074219 343.664062 413.191406 344.710938 C 413.5 347.496094 413.695312 349.933594 413.769531 352.019531 C 413.882812 354.933594 413.921875 357.886719 413.886719 360.882812 L 413.847656 362.742188 C 413.753906 365.667969 413.628906 370.261719 413.472656 376.523438 C 413.449219 377.363281 413.4375 378.691406 413.441406 380.5 C 413.457031 382.59375 413.507812 384.675781 413.59375 386.75 C 413.613281 387.5 413.75 389.710938 414.003906 393.378906 C 413.917969 391.292969 413.914062 387.914062 413.992188 383.238281 C 414.019531 382.046875 414.039062 381.289062 414.050781 380.96875 L 414.226562 375.585938 C 414.480469 369.699219 414.648438 365.253906 414.730469 362.253906 C 414.804688 359.816406 414.835938 357.871094 414.824219 356.410156 C 414.773438 353.273438 414.566406 350.195312 414.195312 347.183594 C 414.035156 345.734375 413.835938 344.234375 413.597656 342.679688 L 411.710938 331.511719 C 411.617188 330.941406 411.484375 330 411.308594 328.679688 C 411.039062 326.429688 410.855469 323.800781 410.761719 320.792969 " fill-opacity="1" fill-rule="nonzero"/><path fill="#c2a568" d="M 418.171875 405.347656 L 418.152344 405.5 C 417.835938 408.632812 417.867188 411.707031 418.246094 414.726562 C 418.320312 415.300781 418.417969 415.886719 418.539062 416.480469 C 419.042969 418.703125 419.847656 422.441406 420.953125 427.691406 C 421.382812 429.773438 421.722656 431.5625 421.96875 433.054688 C 422.949219 439.28125 423.5 443.960938 423.632812 447.097656 C 423.796875 449.90625 423.726562 453.53125 423.417969 457.964844 C 423.316406 459.738281 422.699219 464.824219 421.566406 473.226562 C 421.46875 474.121094 421.394531 475.25 421.34375 476.613281 C 421.292969 479.292969 421.371094 481.882812 421.578125 484.382812 C 421.640625 485.054688 421.804688 485.644531 422.074219 486.148438 C 422.089844 486.175781 422.085938 486.078125 422.066406 485.851562 C 422.191406 485.496094 422.277344 485.132812 422.324219 484.761719 L 422.355469 484.351562 C 422.277344 482.597656 422.242188 480.976562 422.253906 479.488281 C 422.265625 478.058594 422.308594 476.867188 422.382812 475.914062 C 422.441406 475.171875 422.53125 474.253906 422.660156 473.160156 L 424.0625 463.722656 C 424.414062 461.199219 424.636719 459.429688 424.726562 458.414062 C 425.132812 454.320312 425.242188 450.917969 425.058594 448.207031 C 424.730469 443.289062 424.046875 438.195312 423.007812 432.921875 C 422.667969 431.148438 422.234375 429.125 421.703125 426.851562 L 419.121094 416.746094 C 418.914062 415.882812 418.75 415.097656 418.632812 414.394531 C 418.445312 413.136719 418.316406 411.808594 418.242188 410.40625 C 418.21875 409.976562 418.199219 409.363281 418.1875 408.566406 C 418.175781 407.53125 418.179688 406.625 418.199219 405.855469 C 418.167969 405.628906 418.160156 405.460938 418.171875 405.347656 " fill-opacity="1" fill-rule="nonzero"/><path fill="#c2a568" d="M 398.597656 470.59375 L 398.5625 470.730469 C 397.816406 473.867188 397.621094 477.730469 397.972656 482.316406 C 398.105469 483.527344 398.253906 484.519531 398.421875 485.292969 L 400.539062 494.945312 C 400.972656 496.941406 401.335938 498.695312 401.628906 500.210938 C 402.136719 502.753906 402.484375 504.773438 402.671875 506.277344 C 403.023438 509.417969 403.222656 512.199219 403.269531 514.625 C 403.300781 516.648438 403.214844 521.109375 403.007812 528.003906 C 403.003906 529.347656 403.074219 530.9375 403.21875 532.773438 C 403.464844 536.25 404.4375 541.726562 406.132812 549.210938 C 404.789062 541.761719 404.03125 536.164062 403.859375 532.421875 C 403.78125 531.179688 403.734375 529.433594 403.71875 527.175781 L 404.03125 518.398438 C 404.082031 516.78125 404.105469 515.660156 404.101562 515.046875 C 404.09375 512.628906 403.984375 510.359375 403.777344 508.238281 C 403.632812 506.488281 403.28125 504.296875 402.730469 501.664062 C 402.171875 498.941406 400.902344 493.496094 398.921875 485.316406 C 398.734375 484.5 398.566406 483.566406 398.425781 482.519531 C 397.894531 477.78125 397.953125 473.808594 398.597656 470.59375 " fill-opacity="1" fill-rule="nonzero"/><path fill="#c2a568" d="M 386.871094 461.464844 L 386.765625 461.699219 C 385.753906 463.996094 384.933594 466.445312 384.300781 469.054688 C 383.644531 471.976562 383.324219 474.480469 383.335938 476.5625 C 383.351562 477.789062 383.402344 478.804688 383.488281 479.613281 C 384.5 489.015625 385.035156 494.050781 385.097656 494.722656 C 385.316406 497.175781 385.449219 498.769531 385.488281 499.507812 C 385.578125 500.730469 385.691406 502.953125 385.820312 506.164062 L 385.917969 508.730469 L 386.277344 519.21875 C 386.308594 520.121094 386.347656 521.09375 386.390625 522.128906 C 386.523438 525.0625 386.691406 527.867188 386.894531 530.542969 C 386.910156 530.714844 386.894531 530.101562 386.851562 528.710938 C 386.90625 526.027344 386.9375 523.574219 386.941406 521.347656 C 386.933594 519.714844 386.902344 516.730469 386.847656 512.386719 C 386.777344 505.980469 386.664062 501.464844 386.503906 498.84375 C 386.421875 497.203125 386.328125 495.964844 386.222656 495.121094 L 384.589844 482.929688 C 384.324219 480.925781 384.175781 479.746094 384.140625 479.394531 C 383.992188 477.804688 383.917969 476.65625 383.917969 475.941406 C 383.972656 473.535156 384.210938 471.261719 384.636719 469.121094 C 384.824219 468.128906 385.136719 466.878906 385.574219 465.375 L 386.195312 463.390625 L 386.738281 461.808594 L 386.871094 461.464844 " fill-opacity="1" fill-rule="nonzero"/><path fill="#c2a568" d="M 391.253906 336.191406 L 391.25 336.234375 C 391.203125 337.207031 391.167969 337.886719 391.144531 338.273438 C 390.980469 340.878906 390.875 342.554688 390.832031 343.304688 C 390.785156 344.125 390.753906 344.769531 390.734375 345.246094 C 390.664062 347.03125 390.664062 348.945312 390.726562 350.980469 C 390.777344 352.128906 390.820312 352.933594 390.859375 353.386719 C 391.023438 355.441406 391.152344 357.007812 391.253906 358.085938 C 391.316406 358.785156 391.382812 359.480469 391.457031 360.175781 C 391.738281 362.714844 391.941406 364.628906 392.070312 365.925781 C 392.257812 367.832031 392.394531 369.347656 392.476562 370.472656 C 392.574219 371.679688 392.71875 374.082031 392.910156 377.671875 C 392.996094 379.25 393.050781 380.695312 393.074219 382.011719 C 393.058594 381.289062 393.082031 379.339844 393.132812 376.164062 C 393.140625 375.542969 393.140625 374.746094 393.136719 373.78125 C 393.128906 372.128906 393.070312 370.347656 392.964844 368.441406 C 392.867188 366.601562 392.675781 363.992188 392.382812 360.605469 C 392.296875 359.589844 392.191406 358.503906 392.066406 357.347656 L 391.554688 352.882812 C 391.414062 351.394531 391.320312 350.023438 391.269531 348.769531 C 391.230469 347.804688 391.203125 346.589844 391.191406 345.121094 L 391.203125 344.289062 L 391.300781 339.480469 L 391.316406 338.320312 C 391.320312 337.320312 391.316406 336.679688 391.308594 336.40625 C 391.308594 336.324219 391.292969 336.253906 391.253906 336.191406 " fill-opacity="1" fill-rule="nonzero"/><path fill="#c2a568" d="M 402.246094 340.164062 L 402.222656 340.3125 C 402.160156 340.738281 402.117188 341.472656 402.09375 342.523438 C 402.183594 348.632812 402.183594 352.265625 402.09375 353.425781 C 401.953125 355.894531 401.605469 358.851562 401.058594 362.289062 C 400.554688 365.5 399.863281 368.871094 398.980469 372.390625 C 398.910156 372.902344 397.140625 378.933594 393.667969 390.476562 C 392.941406 394.007812 392.609375 397.179688 392.671875 399.988281 C 392.742188 403.460938 393.214844 407.226562 394.09375 411.285156 C 394.511719 413.441406 396.699219 422.542969 400.648438 438.59375 C 402.660156 447.972656 403.777344 452.921875 403.996094 453.445312 L 403.285156 448.164062 C 402.875 445.6875 402.347656 442.761719 401.699219 439.386719 L 396.117188 414.332031 C 395.703125 412.480469 395.425781 411.152344 395.28125 410.347656 C 394.546875 406.625 394.160156 402.789062 394.117188 398.84375 C 394.113281 395.832031 394.359375 393.042969 394.855469 390.476562 C 395.117188 389.234375 395.4375 387.933594 395.808594 386.566406 C 398.375 377.507812 399.652344 372.875 399.644531 372.664062 C 400.535156 368.828125 401.226562 365.09375 401.71875 361.464844 C 402.183594 358.085938 402.433594 355.339844 402.472656 353.226562 C 402.523438 351.46875 402.433594 347.910156 402.199219 342.546875 C 402.183594 341.867188 402.199219 341.070312 402.246094 340.164062 " fill-opacity="1" fill-rule="nonzero"/><path fill="#c2a568" d="M 388.640625 383.457031 L 388.492188 383.609375 C 385.535156 386.523438 384.457031 390.578125 385.269531 395.773438 C 385.519531 397.679688 386.136719 400.460938 387.128906 404.121094 C 387.597656 405.835938 389.476562 411.34375 392.765625 420.636719 C 393.242188 422.160156 393.90625 424.78125 394.753906 428.511719 C 395.339844 431.144531 395.773438 433.546875 396.058594 435.730469 C 396.148438 436.4375 396.25 437.414062 396.363281 438.65625 C 396.820312 444.371094 397.074219 447.390625 397.128906 447.722656 C 397.164062 448.25 397.429688 450.082031 397.921875 453.214844 C 397.769531 452.097656 397.621094 450.363281 397.472656 448.007812 C 397.230469 441.542969 397.046875 437.632812 396.921875 436.28125 C 396.65625 433.492188 396.183594 430.472656 395.503906 427.222656 C 394.871094 424.1875 394.210938 421.546875 393.519531 419.292969 C 393.464844 419 391.949219 414.8125 388.976562 406.726562 C 388.386719 405.066406 388.011719 403.941406 387.847656 403.355469 C 386.621094 399.234375 385.933594 396.386719 385.792969 394.816406 C 385.421875 392.328125 385.46875 390.25 385.929688 388.585938 C 386.507812 386.550781 387.410156 384.839844 388.640625 383.457031 " fill-opacity="1" fill-rule="nonzero"/><path fill="#c2a568" d="M 390.265625 423.417969 L 390.261719 423.59375 C 390.191406 426.269531 390.15625 428.042969 390.160156 428.914062 C 390.1875 430.910156 390.261719 432.707031 390.371094 434.296875 C 390.414062 434.882812 390.488281 435.558594 390.59375 436.320312 C 391.28125 440.417969 391.734375 443.414062 391.957031 445.3125 C 392.230469 447.574219 392.402344 449.714844 392.472656 451.738281 C 392.511719 453.054688 392.496094 454.746094 392.421875 456.808594 C 392.234375 461.773438 392.023438 466.328125 391.785156 470.472656 C 391.75 472.53125 391.773438 474.28125 391.859375 475.71875 C 391.964844 477.761719 392.175781 480.269531 392.488281 483.242188 C 392.5625 484.171875 393.035156 488.148438 393.898438 495.167969 C 393.695312 493.058594 393.402344 488.695312 393.015625 482.078125 C 392.859375 479.402344 392.773438 476.910156 392.753906 474.609375 C 392.742188 474.070312 392.746094 473.410156 392.753906 472.625 L 392.839844 468.988281 C 392.847656 468.46875 393.003906 465.519531 393.308594 460.148438 C 393.378906 458.808594 393.417969 457.894531 393.429688 457.40625 C 393.480469 454.996094 393.46875 453.058594 393.394531 451.601562 C 393.269531 449.378906 393.023438 447.035156 392.65625 444.574219 C 392.644531 444.300781 392.160156 441.667969 391.203125 436.671875 C 391.066406 435.894531 390.960938 435.167969 390.882812 434.492188 C 390.726562 433.078125 390.601562 431.601562 390.519531 430.0625 L 390.441406 428.5625 C 390.425781 428.363281 390.382812 426.875 390.308594 424.105469 L 390.265625 423.417969 " fill-opacity="1" fill-rule="nonzero"/><path fill="#c2a568" d="M 391.019531 276.988281 L 390.960938 277.160156 C 389.929688 280.253906 389.25 283.347656 388.914062 286.445312 C 388.644531 288.710938 388.507812 290.253906 388.496094 291.074219 C 388.445312 292.410156 388.414062 293.253906 388.410156 293.609375 C 388.355469 298.238281 388.320312 300.523438 388.3125 300.460938 C 388.296875 301.164062 388.253906 302.195312 388.175781 303.558594 C 387.992188 306.609375 387.730469 309.773438 387.382812 313.054688 C 387.320312 313.882812 387.03125 316.050781 386.507812 319.558594 C 386.515625 319.625 385.738281 324.414062 384.171875 333.929688 C 383.960938 335.230469 383.765625 336.53125 383.582031 337.828125 C 383.398438 338.925781 383.160156 341.5625 382.875 345.734375 C 382.949219 345.121094 383.03125 344.554688 383.121094 344.03125 C 383.386719 342.511719 383.75 340.523438 384.21875 338.066406 C 385.402344 332.589844 386.359375 327.910156 387.085938 324.027344 C 387.699219 320.738281 388.097656 318.351562 388.277344 316.863281 C 388.730469 312.5 388.957031 310.222656 388.953125 310.027344 C 389.0625 308.535156 389.140625 307.007812 389.1875 305.445312 L 389.175781 302.613281 C 389.113281 300.710938 389.074219 299.089844 389.058594 297.75 C 389.039062 296.421875 389.023438 294.441406 389.015625 291.808594 C 389.003906 291.394531 389.035156 290.203125 389.109375 288.238281 C 389.101562 288.226562 389.132812 287.671875 389.199219 286.570312 C 389.3125 284.964844 389.496094 283.484375 389.761719 282.136719 C 389.917969 281.304688 390.09375 280.5 390.285156 279.71875 L 391.019531 276.988281 " fill-opacity="1" fill-rule="nonzero"/><path fill="#c2a568" d="M 408.074219 266.148438 L 407.984375 266.332031 C 407.109375 268.160156 406.246094 270.539062 405.398438 273.480469 C 404.902344 275.304688 404.589844 277.191406 404.457031 279.144531 C 404.335938 281.3125 404.351562 283.800781 404.507812 286.609375 C 404.582031 287.6875 404.628906 288.253906 404.648438 288.304688 L 405.285156 292.769531 C 405.566406 294.996094 405.703125 296.15625 405.703125 296.242188 C 405.851562 297.574219 405.941406 299.183594 405.964844 301.070312 C 405.992188 302.460938 405.929688 304.125 405.78125 306.066406 C 405.382812 310.785156 405.09375 313.671875 404.910156 314.730469 C 404.941406 314.476562 405.066406 313.722656 405.289062 312.460938 C 405.710938 310.242188 405.96875 308.847656 406.0625 308.277344 C 406.214844 307.386719 406.328125 306.683594 406.398438 306.167969 C 406.679688 304.273438 406.828125 302.484375 406.832031 300.800781 C 406.820312 298.867188 406.734375 297.074219 406.566406 295.421875 L 406.371094 293.761719 L 405.527344 287.441406 C 405.363281 286.027344 405.277344 285.195312 405.273438 284.945312 C 405.070312 282.195312 405.023438 280.015625 405.136719 278.402344 C 405.238281 276.734375 405.488281 275.042969 405.890625 273.332031 C 406.226562 271.964844 406.570312 270.710938 406.921875 269.566406 L 407.371094 268.160156 L 407.992188 266.40625 L 408.078125 266.148438 L 408.074219 266.148438 " fill-opacity="1" fill-rule="nonzero"/><path fill="#c2a568" d="M 414.308594 293.566406 L 414.390625 294.152344 C 414.640625 295.835938 414.890625 298.152344 415.140625 301.101562 C 415.195312 301.875 415.257812 302.9375 415.324219 304.285156 L 415.84375 315.019531 C 415.902344 316.199219 416.078125 318.402344 416.371094 321.621094 C 416.519531 323.050781 416.714844 324.492188 416.960938 325.945312 C 417.007812 326.320312 417.558594 329.5 418.613281 335.492188 C 418.828125 337.132812 418.992188 338.699219 419.113281 340.199219 C 419.253906 341.90625 419.347656 344.132812 419.390625 346.878906 C 419.4375 350.304688 419.414062 353.246094 419.328125 355.703125 L 419.65625 349.703125 C 419.71875 348.390625 419.757812 347.152344 419.773438 345.992188 C 419.8125 343.140625 419.742188 340.691406 419.566406 338.648438 C 419.488281 337.582031 419.351562 336.339844 419.164062 334.925781 L 417.316406 323.050781 C 417.160156 322.082031 416.992188 320.792969 416.804688 319.1875 C 416.601562 317.402344 416.429688 315.609375 416.285156 313.808594 C 416.25 313.429688 416.019531 310.023438 415.59375 303.59375 C 415.503906 302.3125 415.4375 301.476562 415.402344 301.078125 C 415.015625 297.46875 414.652344 294.964844 414.308594 293.566406 " fill-opacity="1" fill-rule="nonzero"/><path fill="#c2a568" d="M 424.785156 385.082031 L 424.8125 385.21875 C 425.09375 386.460938 425.34375 387.753906 425.566406 389.097656 L 426.851562 397.769531 C 427.050781 399.027344 427.261719 400.3125 427.488281 401.625 L 428.867188 409.472656 C 429.015625 410.351562 429.191406 411.605469 429.390625 413.242188 C 429.6875 415.714844 429.898438 417.929688 430.023438 419.886719 C 430.0625 420.308594 430.226562 423.492188 430.515625 429.4375 C 430.574219 430.550781 430.625 431.894531 430.671875 433.464844 C 430.660156 433.035156 430.660156 432.457031 430.667969 431.722656 C 430.722656 427.46875 430.746094 424.976562 430.742188 424.25 C 430.742188 422.027344 430.726562 420.519531 430.695312 419.726562 C 430.621094 416.976562 430.386719 413.835938 429.988281 410.308594 C 429.785156 408.726562 429.636719 407.734375 429.546875 407.328125 L 429.503906 407.105469 C 428.296875 401.59375 427.113281 395.75 425.949219 389.582031 C 425.398438 386.996094 425.007812 385.496094 424.785156 385.082031 " fill-opacity="1" fill-rule="nonzero"/><path fill="#c2a568" d="M 433.238281 480.769531 L 433.242188 480.839844 C 433.359375 482.371094 433.398438 483.980469 433.367188 485.667969 C 433.371094 485.792969 433.347656 486.558594 433.289062 487.964844 L 433.082031 492.4375 C 433.066406 492.722656 433.054688 493.113281 433.039062 493.609375 C 433.007812 494.714844 433 495.996094 433.007812 497.441406 C 433.007812 498.0625 433.058594 499.699219 433.164062 502.347656 L 433.226562 503.601562 C 433.351562 505.734375 433.457031 507.535156 433.535156 509.007812 C 433.621094 510.921875 433.664062 512.078125 433.667969 512.476562 C 433.6875 513.226562 433.703125 514.308594 433.714844 515.726562 C 433.730469 519.53125 433.738281 521.722656 433.738281 522.300781 C 433.738281 523.335938 433.734375 523.957031 433.730469 524.15625 C 433.722656 524.488281 433.707031 524.875 433.679688 525.320312 C 433.914062 522.289062 434.082031 519.664062 434.183594 517.449219 C 434.269531 515.5 434.316406 514.15625 434.328125 513.417969 C 434.339844 512.992188 434.34375 512.671875 434.34375 512.460938 C 434.34375 511.394531 434.34375 510.75 434.339844 510.523438 C 434.34375 510.519531 434.324219 509.425781 434.277344 507.238281 C 434.246094 506.347656 434.203125 505.273438 434.148438 504.015625 C 434.113281 503.324219 434.082031 502.746094 434.046875 502.28125 C 433.898438 500.3125 433.828125 499.277344 433.828125 499.179688 C 433.773438 498.359375 433.730469 497.378906 433.695312 496.230469 C 433.675781 495.640625 433.660156 494.695312 433.648438 493.390625 L 433.636719 491.230469 L 433.640625 489.097656 C 433.652344 487.886719 433.652344 487.191406 433.648438 487.003906 C 433.625 485.804688 433.605469 485.015625 433.589844 484.640625 C 433.554688 483.714844 433.5 482.882812 433.433594 482.140625 C 433.351562 481.238281 433.289062 480.78125 433.238281 480.769531 " fill-opacity="1" fill-rule="nonzero"/><path fill="#c2a568" d="M 420.691406 503.25 L 420.679688 503.339844 C 420.480469 505.003906 420.351562 506.289062 420.289062 507.1875 C 420.242188 508.089844 420.246094 508.894531 420.300781 509.601562 C 420.34375 510.300781 420.457031 511.21875 420.632812 512.355469 C 421.519531 516.960938 421.964844 519.457031 421.96875 519.847656 C 422.175781 521.675781 422.230469 523.511719 422.128906 525.355469 C 422.039062 526.792969 421.871094 528.230469 421.613281 529.660156 C 421.53125 530.121094 421.402344 530.78125 421.222656 531.644531 C 420.371094 535.5625 419.835938 538.101562 419.621094 539.261719 C 419.355469 540.535156 418.925781 543.050781 418.328125 546.804688 C 418.457031 546.195312 418.582031 545.671875 418.695312 545.230469 C 419.796875 541.078125 420.398438 538.78125 420.496094 538.339844 C 420.96875 536.460938 421.460938 534.441406 421.972656 532.273438 C 422.386719 530.65625 422.726562 528.839844 422.992188 526.820312 C 423.152344 525.609375 423.222656 524.75 423.214844 524.25 C 423.21875 523.355469 423.167969 522.363281 423.0625 521.273438 C 422.9375 520.101562 422.816406 519.273438 422.710938 518.792969 C 422.480469 517.640625 421.957031 515.402344 421.132812 512.078125 C 421.007812 511.542969 420.859375 510.652344 420.6875 509.410156 C 420.621094 508.941406 420.582031 508.226562 420.570312 507.261719 C 420.570312 507.054688 420.578125 506.832031 420.585938 506.597656 L 420.714844 503.597656 L 420.691406 503.25 " fill-opacity="1" fill-rule="nonzero"/><path fill="#c2a568" d="M 411.128906 489.488281 L 411.09375 489.628906 C 410.515625 492.546875 410.355469 495.839844 410.613281 499.515625 C 410.6875 500.464844 410.78125 501.320312 410.902344 502.085938 C 412.011719 508 412.558594 511.050781 412.539062 511.238281 C 412.707031 512.601562 412.835938 513.878906 412.921875 515.070312 C 413.074219 516.898438 413.160156 518.339844 413.175781 519.394531 C 413.203125 520.707031 413.183594 522.300781 413.113281 524.175781 L 413.027344 526 L 412.617188 533.4375 C 412.558594 534.523438 412.507812 535.515625 412.46875 536.410156 C 412.425781 537.488281 412.394531 538.328125 412.382812 538.925781 C 412.371094 539.324219 412.359375 540.257812 412.351562 541.71875 C 412.347656 542.097656 412.332031 542.53125 412.3125 543.015625 C 412.34375 542.433594 412.394531 541.796875 412.464844 541.105469 C 412.996094 536.082031 413.269531 533.378906 413.296875 533 C 413.539062 530.351562 413.765625 527.753906 413.972656 525.203125 C 414.195312 522.152344 414.28125 519.785156 414.230469 518.101562 C 414.199219 516.722656 414.144531 515.609375 414.066406 514.765625 C 413.945312 513.546875 413.78125 512.25 413.566406 510.871094 C 413.527344 510.40625 412.824219 507.179688 411.453125 501.183594 C 411.386719 500.886719 411.269531 500.09375 411.109375 498.796875 C 410.941406 497.289062 410.859375 495.789062 410.859375 494.296875 C 410.855469 493.828125 410.875 493.191406 410.917969 492.386719 C 410.980469 491.328125 411.046875 490.523438 411.113281 489.972656 C 411.121094 489.859375 411.117188 489.765625 411.105469 489.683594 C 411.132812 489.488281 411.136719 489.421875 411.128906 489.488281 " fill-opacity="1" fill-rule="nonzero"/><path fill="#c2a568" d="M 394.257812 505.59375 L 394.253906 505.648438 C 394.226562 506.707031 394.132812 508.238281 393.972656 510.242188 C 393.957031 510.691406 393.949219 511.265625 393.945312 511.976562 C 393.917969 513.308594 394.011719 514.882812 394.234375 516.699219 C 394.402344 517.953125 394.601562 519.019531 394.832031 519.902344 L 397.210938 528.964844 C 397.503906 530.339844 397.6875 531.53125 397.765625 532.546875 C 397.839844 533.429688 397.871094 534.722656 397.855469 536.421875 C 397.867188 536.460938 397.8125 537.742188 397.695312 540.273438 C 397.617188 542.960938 397.574219 544.410156 397.5625 544.621094 L 397.449219 547.035156 C 397.472656 546.625 397.523438 546.09375 397.601562 545.4375 C 397.660156 544.851562 397.835938 543.378906 398.121094 541.015625 L 398.292969 539.359375 C 398.449219 537.566406 398.546875 536.171875 398.582031 535.175781 C 398.625 533.992188 398.613281 532.867188 398.550781 531.808594 C 398.472656 530.769531 398.328125 529.695312 398.117188 528.582031 C 397.773438 526.914062 397.472656 525.617188 397.210938 524.683594 L 395.527344 519.074219 C 395.097656 517.457031 394.835938 516.25 394.738281 515.445312 C 394.503906 513.652344 394.378906 512.378906 394.367188 511.625 C 394.351562 511.351562 394.332031 510.800781 394.308594 509.972656 C 394.328125 508.792969 394.328125 507.519531 394.3125 506.144531 C 394.3125 505.8125 394.292969 505.628906 394.257812 505.59375 " fill-opacity="1" fill-rule="nonzero"/><path fill="#c2a568" d="M 378.121094 405.558594 L 378.082031 405.640625 C 377.289062 407.328125 376.875 410.015625 376.839844 413.710938 C 376.878906 414.644531 376.988281 415.765625 377.171875 417.070312 C 377.3125 418.058594 377.828125 421.175781 378.714844 426.425781 C 378.820312 427.132812 378.898438 427.761719 378.953125 428.320312 C 379.222656 431.007812 379.238281 434.03125 379.003906 437.386719 C 378.867188 439.171875 378.667969 440.921875 378.402344 442.636719 C 376.652344 451.769531 375.15625 460.175781 373.914062 467.847656 C 373.421875 471.378906 373.203125 474.238281 373.261719 476.425781 C 373.28125 478.792969 373.742188 481.132812 374.640625 483.453125 C 374.714844 483.855469 376.003906 486.097656 378.503906 490.179688 C 378.917969 491.167969 379.21875 492.222656 379.40625 493.34375 C 380.125 498.496094 380.457031 502.136719 380.40625 504.253906 C 380.347656 505.230469 380.265625 506 380.15625 506.554688 L 378.683594 513.214844 C 378.550781 514.101562 378.503906 514.878906 378.542969 515.542969 C 378.609375 517.507812 379.484375 520.253906 381.164062 523.78125 C 379.800781 520.097656 379.132812 517.367188 379.160156 515.597656 C 379.148438 515.023438 379.21875 514.359375 379.363281 513.605469 L 381.164062 506.789062 C 381.316406 506.070312 381.410156 505.433594 381.449219 504.882812 C 381.65625 502.851562 381.4375 498.980469 380.796875 493.265625 C 380.605469 491.902344 380.296875 490.699219 379.863281 489.652344 C 377.351562 485.261719 376.121094 483.003906 376.171875 482.878906 C 375.433594 480.75 375.039062 478.761719 374.988281 476.921875 C 374.9375 474.9375 375.152344 472.109375 375.632812 468.4375 C 376.167969 463.8125 377.480469 455.394531 379.566406 443.175781 C 379.84375 441.132812 380.023438 439.152344 380.113281 437.230469 C 380.246094 433.769531 380.148438 430.707031 379.828125 428.046875 C 379.730469 427.285156 379.621094 426.578125 379.5 425.925781 L 377.734375 416.964844 C 377.550781 415.898438 377.394531 414.761719 377.269531 413.5625 C 377.171875 410.082031 377.457031 407.417969 378.121094 405.558594 " fill-opacity="1" fill-rule="nonzero"/><path fill="#c2a568" d="M 400.554688 251.707031 L 400.289062 252.042969 C 397.769531 255.121094 396.28125 258.230469 395.820312 261.363281 C 395.550781 262.871094 395.421875 264.765625 395.429688 267.042969 C 395.433594 267.59375 395.445312 268.121094 395.46875 268.632812 L 395.636719 270.941406 L 395.894531 275.410156 C 395.933594 277.722656 395.902344 279.398438 395.800781 280.433594 C 395.742188 281.21875 395.617188 282.078125 395.425781 283.011719 C 394.339844 287.464844 393.757812 289.988281 393.679688 290.582031 C 393.453125 292.113281 393.316406 293.125 393.277344 293.613281 C 393.234375 293.941406 393.21875 294.429688 393.230469 295.078125 C 393.242188 296.847656 393.699219 298.738281 394.597656 300.75 C 394.828125 301.257812 395.207031 301.929688 395.726562 302.761719 C 396.988281 304.769531 398.507812 307.128906 400.296875 309.839844 C 400.78125 310.746094 401.128906 311.667969 401.335938 312.609375 C 401.507812 313.457031 401.453125 314.414062 401.171875 315.476562 L 398.761719 322.175781 C 398.546875 322.863281 398.421875 323.640625 398.386719 324.511719 C 398.359375 325.191406 398.414062 325.839844 398.546875 326.460938 L 399.664062 329.980469 L 399.976562 331.21875 C 400.386719 333.484375 400.636719 335.355469 400.738281 336.835938 L 400.679688 333.003906 C 400.664062 332.394531 400.625 331.707031 400.558594 330.945312 C 400.539062 330.4375 400.207031 328.921875 399.570312 326.398438 C 399.484375 325.625 399.472656 324.976562 399.53125 324.453125 C 399.585938 323.882812 399.722656 323.265625 399.945312 322.601562 C 401.488281 319.25 402.40625 317.066406 402.707031 316.054688 C 403.121094 314.773438 403.25 313.5625 403.089844 312.425781 C 402.96875 311.375 402.550781 310.121094 401.832031 308.671875 C 398.503906 303.464844 396.785156 300.628906 396.675781 300.160156 C 395.933594 298.445312 395.574219 296.929688 395.59375 295.617188 C 395.59375 295.25 395.605469 294.894531 395.636719 294.542969 C 395.742188 293.28125 395.839844 292.328125 395.933594 291.691406 C 395.941406 291.394531 396.4375 288.519531 397.433594 283.066406 C 397.59375 281.984375 397.679688 281.074219 397.695312 280.328125 C 397.722656 278.886719 397.691406 277.582031 397.59375 276.417969 L 397.179688 272.433594 C 396.910156 270.582031 396.746094 269.367188 396.691406 268.796875 C 396.632812 268.328125 396.558594 267.359375 396.46875 265.886719 C 396.375 264.503906 396.414062 262.882812 396.578125 261.027344 C 396.796875 258.167969 398.125 255.0625 400.554688 251.707031 " fill-opacity="1" fill-rule="nonzero"/><path fill="#c2a568" d="M 393.746094 314.894531 L 393.730469 315.078125 C 393.660156 315.800781 393.582031 316.871094 393.492188 318.285156 C 393.457031 318.796875 393.433594 319.363281 393.417969 319.980469 C 393.398438 321.089844 393.390625 321.804688 393.40625 322.125 C 393.414062 322.640625 393.453125 323.5625 393.519531 324.894531 C 393.59375 326.082031 393.675781 327.015625 393.765625 327.691406 L 394.628906 333.21875 L 395.210938 336.671875 C 395.335938 337.488281 395.464844 338.628906 395.59375 340.101562 C 395.628906 340.496094 395.660156 340.984375 395.691406 341.566406 C 395.730469 342.597656 395.765625 343.394531 395.796875 343.957031 C 395.808594 344.144531 395.835938 344.992188 395.871094 346.496094 L 395.964844 352.304688 C 395.976562 352.769531 395.972656 353.667969 395.953125 355.003906 L 395.972656 354.410156 L 396.070312 352.734375 C 396.332031 349.304688 396.46875 347.296875 396.484375 346.710938 C 396.546875 345.328125 396.554688 343.890625 396.507812 342.402344 C 396.34375 339.792969 396.246094 338.390625 396.21875 338.199219 C 396.152344 337.367188 396.050781 336.488281 395.925781 335.558594 C 395.800781 334.617188 395.65625 333.707031 395.496094 332.820312 L 394.457031 327.546875 C 394.351562 326.96875 394.179688 325.601562 393.945312 323.449219 C 393.890625 322.878906 393.824219 322.007812 393.746094 320.839844 C 393.726562 320.472656 393.710938 320.191406 393.710938 319.992188 C 393.695312 319.109375 393.691406 318.449219 393.695312 318.015625 C 393.691406 317.789062 393.710938 316.878906 393.753906 315.28125 C 393.757812 315.191406 393.753906 315.109375 393.742188 315.039062 C 393.742188 314.984375 393.746094 314.9375 393.746094 314.894531 " fill-opacity="1" fill-rule="nonzero"/><path fill="#c2a568" d="M 387.453125 344.285156 L 387.371094 344.488281 C 385.597656 349.109375 384.40625 354.046875 383.792969 359.296875 C 383.710938 360.289062 383.621094 362.476562 383.523438 365.863281 C 383.492188 367.1875 383.492188 369.203125 383.523438 371.90625 C 383.582031 375.566406 383.640625 377.832031 383.695312 378.707031 C 383.785156 380.355469 383.925781 381.632812 384.113281 382.539062 C 384.125 382.535156 384.128906 382.296875 384.125 381.820312 C 384.320312 380.75 384.457031 379.570312 384.535156 378.273438 C 384.660156 373.015625 384.738281 369.242188 384.777344 366.953125 C 384.792969 366.675781 384.789062 365.097656 384.765625 362.214844 C 384.769531 361.34375 384.777344 360.613281 384.789062 360.015625 C 384.808594 359.152344 384.824219 358.621094 384.839844 358.425781 C 384.882812 357.644531 384.941406 356.855469 385.011719 356.054688 C 385.210938 353.851562 385.46875 351.996094 385.785156 350.484375 C 386.023438 349.359375 386.269531 348.320312 386.527344 347.363281 C 386.628906 346.976562 386.765625 346.496094 386.933594 345.917969 C 387.175781 345.191406 387.351562 344.644531 387.453125 344.285156 " fill-opacity="1" fill-rule="nonzero"/><path fill="#c2a568" d="M 410.847656 403.125 L 410.851562 403.613281 C 410.878906 405.785156 410.984375 408.578125 411.167969 411.996094 C 411.371094 415.949219 411.554688 418.707031 411.722656 420.261719 L 412.085938 423.667969 L 414.335938 440.726562 C 414.667969 443.429688 414.90625 445.652344 415.050781 447.390625 C 415.125 447.8125 415.3125 451.363281 415.601562 458.046875 C 415.738281 461.132812 415.816406 463.648438 415.835938 465.585938 C 415.839844 465.6875 415.84375 465.363281 415.84375 464.617188 C 416.042969 459.257812 416.132812 456.671875 416.117188 456.859375 C 416.152344 455.46875 416.167969 453.886719 416.160156 452.121094 C 416.152344 450.234375 416.074219 448.121094 415.921875 445.78125 C 415.707031 442.507812 415.464844 439.636719 415.199219 437.175781 C 415.089844 436.027344 414.847656 434.140625 414.472656 431.511719 L 412.839844 421.707031 C 412.816406 421.609375 412.667969 420.554688 412.390625 418.539062 C 412.316406 417.953125 412.242188 417.199219 412.15625 416.285156 C 411.746094 411.550781 411.511719 408.933594 411.453125 408.4375 L 411.054688 404.78125 C 411.011719 404.449219 410.964844 404.15625 410.910156 403.90625 L 410.847656 403.125 " fill-opacity="1" fill-rule="nonzero"/><path fill="#c2a568" d="M 376.359375 525.632812 L 376.371094 525.714844 C 376.683594 527.378906 377.082031 529.039062 377.566406 530.695312 L 380.40625 538.941406 L 381.109375 540.820312 C 381.519531 542.039062 381.792969 542.90625 381.929688 543.414062 C 382.355469 544.9375 382.886719 547.027344 383.523438 549.683594 C 383.867188 551.09375 384.132812 552.382812 384.324219 553.554688 C 384.269531 553.324219 384.046875 551.550781 383.65625 548.238281 C 383.53125 547.332031 383.398438 546.480469 383.25 545.679688 C 382.679688 542.738281 382.085938 540.382812 381.472656 538.609375 L 378.121094 530.742188 L 377.308594 528.535156 C 377.101562 527.941406 376.828125 527.078125 376.492188 525.949219 L 376.359375 525.632812 " fill-opacity="1" fill-rule="nonzero"/><path fill="#c2a568" d="M 390.808594 533.433594 L 390.816406 533.472656 C 391.117188 534.824219 391.296875 535.597656 391.363281 535.796875 C 392.183594 538.644531 392.84375 541.0625 393.347656 543.050781 L 395.8125 551.472656 C 395.972656 552.027344 396.171875 552.773438 396.410156 553.71875 C 396.347656 553.492188 396.238281 552.972656 396.078125 552.160156 L 395.363281 548.351562 C 395.257812 547.796875 395.117188 547.109375 394.945312 546.289062 L 394.304688 543.359375 C 394.257812 543.125 394.1875 542.863281 394.097656 542.574219 C 394.074219 542.40625 393.34375 540.429688 391.90625 536.644531 C 391.8125 536.414062 391.472656 535.390625 390.886719 533.570312 C 390.871094 533.519531 390.84375 533.472656 390.808594 533.433594 " fill-opacity="1" fill-rule="nonzero"/><path fill="#c2a568" d="M 434.101562 529.742188 L 434.054688 529.855469 C 433.089844 532.238281 432.515625 534.269531 432.335938 535.949219 C 432.25 536.683594 432.203125 537.5 432.199219 538.40625 C 432.195312 538.875 432.207031 539.523438 432.222656 540.351562 C 432.292969 541.609375 432.328125 542.296875 432.328125 542.410156 C 432.335938 542.859375 432.335938 543.332031 432.324219 543.828125 C 432.300781 544.648438 432.226562 545.328125 432.109375 545.871094 C 431.765625 547.683594 431.066406 549.609375 430.003906 551.652344 C 430.730469 550.363281 431.222656 549.390625 431.480469 548.734375 C 432 547.503906 432.371094 546.238281 432.597656 544.933594 C 432.667969 544.402344 432.722656 543.585938 432.761719 542.484375 L 432.71875 540.5 L 432.628906 537.933594 C 432.621094 537.167969 432.648438 536.40625 432.71875 535.648438 C 432.773438 534.988281 432.921875 534.125 433.167969 533.054688 C 433.246094 532.710938 433.339844 532.359375 433.441406 532 C 433.640625 531.292969 433.832031 530.660156 434.015625 530.097656 C 434.042969 530.015625 434.058594 529.941406 434.0625 529.878906 L 434.101562 529.742188 " fill-opacity="1" fill-rule="nonzero"/><path fill="#c2a568" d="M 413.253906 546.382812 L 413.226562 546.4375 C 412.710938 547.398438 412.425781 548.652344 412.371094 550.199219 C 412.359375 550.523438 412.367188 550.808594 412.398438 551.0625 C 412.425781 551.394531 412.484375 551.828125 412.570312 552.367188 C 412.625 552.699219 412.726562 553.203125 412.878906 553.878906 C 412.941406 554.175781 413.039062 554.515625 413.171875 554.90625 C 413.222656 555.128906 413.289062 555.433594 413.367188 555.820312 C 413.46875 556.332031 413.527344 556.824219 413.542969 557.292969 C 413.566406 557.847656 413.503906 558.511719 413.363281 559.285156 C 413.300781 559.636719 413.210938 560.039062 413.09375 560.488281 C 412.921875 561.199219 412.789062 561.691406 412.699219 561.960938 C 412.746094 561.785156 412.945312 561.207031 413.296875 560.234375 C 413.398438 559.9375 413.453125 559.757812 413.46875 559.699219 C 413.714844 558.679688 413.84375 557.894531 413.851562 557.347656 C 413.863281 556.988281 413.851562 556.632812 413.820312 556.273438 C 413.804688 556.050781 413.746094 555.636719 413.644531 555.03125 C 413.519531 554.371094 413.453125 554.035156 413.441406 554.023438 L 413.074219 552.667969 C 413.039062 552.535156 412.972656 552.253906 412.878906 551.820312 C 412.761719 551.3125 412.6875 550.828125 412.652344 550.359375 C 412.625 549.566406 412.660156 548.859375 412.757812 548.246094 C 412.808594 547.929688 412.871094 547.632812 412.945312 547.355469 C 413.058594 546.949219 413.15625 546.667969 413.230469 546.511719 L 413.257812 546.382812 L 413.253906 546.382812 " fill-opacity="1" fill-rule="nonzero"/><path fill="#c2a568" d="M 402.882812 547.992188 L 402.835938 548.121094 C 402.640625 548.644531 402.519531 549.183594 402.476562 549.730469 C 402.4375 550.21875 402.472656 550.894531 402.585938 551.753906 C 402.664062 552.234375 402.730469 552.542969 402.789062 552.679688 L 403.507812 554.808594 C 403.554688 554.976562 403.664062 555.246094 403.835938 555.628906 C 403.863281 555.691406 403.90625 555.832031 403.96875 556.054688 C 404.140625 556.664062 404.238281 557.195312 404.261719 557.65625 C 404.289062 558.078125 404.234375 558.714844 404.097656 559.578125 C 403.929688 560.570312 403.730469 561.476562 403.5 562.300781 C 404.03125 560.585938 404.335938 559.511719 404.414062 559.078125 C 404.578125 558.335938 404.648438 557.730469 404.621094 557.265625 C 404.597656 556.621094 404.445312 555.820312 404.167969 554.863281 C 404.136719 554.753906 404.09375 554.636719 404.042969 554.511719 L 403.117188 552.257812 C 403.023438 551.988281 402.933594 551.667969 402.855469 551.285156 C 402.792969 550.929688 402.738281 550.570312 402.699219 550.214844 C 402.675781 550.015625 402.667969 549.796875 402.671875 549.550781 C 402.671875 549.359375 402.6875 549.152344 402.71875 548.9375 C 402.746094 548.722656 402.800781 548.433594 402.882812 548.074219 C 402.890625 548.042969 402.890625 548.015625 402.882812 547.992188 " fill-opacity="1" fill-rule="nonzero"/><path fill="#c2a568" d="M 372.550781 491.164062 L 372.511719 491.242188 C 371.703125 492.921875 371.164062 494.464844 370.898438 495.867188 C 370.585938 497.523438 370.476562 499.332031 370.5625 501.292969 C 370.625 502.476562 370.746094 503.613281 370.925781 504.703125 C 370.988281 505.199219 371.566406 507.65625 372.660156 512.066406 C 372.839844 512.933594 372.972656 514.007812 373.0625 515.289062 C 373.136719 516.554688 373.128906 517.746094 373.046875 518.863281 C 373.050781 519.21875 372.800781 521.609375 372.296875 526.035156 C 372.246094 526.621094 372.210938 527.101562 372.191406 527.476562 C 372.136719 529.054688 372.167969 530.3125 372.292969 531.25 C 372.40625 532.777344 373.300781 535.59375 374.976562 539.699219 C 373.628906 536.066406 372.855469 533.308594 372.65625 531.421875 C 372.546875 530.292969 372.539062 528.988281 372.628906 527.515625 C 372.632812 527.4375 372.609375 527.3125 372.5625 527.140625 L 372.71875 526.679688 L 373.386719 521.6875 C 373.492188 520.839844 373.574219 520.152344 373.628906 519.625 C 373.78125 517.84375 373.820312 516.3125 373.742188 515.035156 C 373.703125 514.121094 373.558594 513.035156 373.304688 511.78125 L 371.816406 506.011719 C 371.644531 505.328125 371.535156 504.84375 371.484375 504.566406 C 371.214844 503.097656 371.050781 501.730469 370.984375 500.46875 C 370.898438 498.648438 370.96875 497.089844 371.195312 495.800781 C 371.292969 495.183594 371.441406 494.53125 371.640625 493.847656 C 371.734375 493.496094 372.039062 492.601562 372.550781 491.164062 " fill-opacity="1" fill-rule="nonzero"/></svg>